<svg width="29" height="29" viewBox="0 0 29 29" fill="none" xmlns="http://www.w3.org/2000/svg">
<path fill-rule="evenodd" clip-rule="evenodd" d="M28.5543 14.2526C28.5543 22.1241 22.1622 28.5052 14.2772 28.5052C6.3921 28.5052 0 22.1241 0 14.2526C0 6.3811 6.3921 0 14.2772 0C22.1622 0 28.5543 6.3811 28.5543 14.2526ZM1.42772 14.2526C1.42772 21.3369 7.18061 27.0799 14.2772 27.0799C21.3737 27.0799 27.1266 21.3369 27.1266 14.2526C27.1266 7.16825 21.3737 1.42526 14.2772 1.42526C7.18061 1.42526 1.42772 7.16825 1.42772 14.2526ZM26.27 14.2534C26.27 20.8655 20.9006 26.2256 14.2772 26.2256C7.65373 26.2256 2.28436 20.8655 2.28436 14.2534C2.28436 7.64137 7.65373 2.28125 14.2772 2.28125C20.9006 2.28125 26.27 7.64137 26.27 14.2534ZM2.52422 14.2534C2.52422 20.7332 7.7862 25.9861 14.2772 25.9861C20.7682 25.9861 26.0301 20.7332 26.0301 14.2534C26.0301 7.77361 20.7682 2.52069 14.2772 2.52069C7.7862 2.52069 2.52422 7.77361 2.52422 14.2534ZM13.4205 18.4312H11.9928L12.0431 18.5989C12.1968 19.1114 12.2034 19.6568 12.0622 20.173L11.9928 20.4265H16.5615L16.4921 20.173C16.3508 19.6568 16.3574 19.1114 16.5112 18.5989L16.5615 18.4312H15.1338V16.4358H17.4181V15.0613C17.4181 14.8405 17.3666 14.6227 17.2677 14.4252C17.1792 14.2484 17.046 14.0977 16.8813 13.9882L16.2759 13.5853L15.851 13.2671C15.7537 13.1943 15.6617 13.1146 15.5756 13.0287L15.4202 12.8735C15.3245 12.778 15.2358 12.6759 15.1546 12.5678L15.0127 12.379C14.9038 12.234 14.8189 12.0723 14.7615 11.9002L14.6697 11.6254C14.5986 11.4124 14.5514 11.1921 14.529 10.9687L14.481 10.4894C14.4685 10.3646 14.6382 10.3154 14.6943 10.4275C14.7017 10.4421 14.7121 10.455 14.7248 10.4652L15.263 10.895C15.3642 10.9758 15.4899 11.0198 15.6194 11.0198H16.0018C16.1751 11.0198 16.339 11.0985 16.4474 11.2338L16.6756 11.5185C16.7839 11.6537 16.9479 11.7324 17.1212 11.7324H17.3983C17.5891 11.7324 17.7673 11.6372 17.8732 11.4785L17.893 11.4489C17.9557 11.355 17.9892 11.2446 17.9892 11.1317V10.9325C17.9892 10.8044 17.9461 10.68 17.8669 10.5793L16.4989 8.84133C16.447 8.7753 16.4187 8.69371 16.4187 8.60968C16.4187 8.51023 16.3792 8.41486 16.3088 8.3446L16.0176 8.05391C15.9161 7.95262 15.891 7.79771 15.9552 7.66951C15.9783 7.62327 15.9904 7.57226 15.9904 7.52054V6.87765C15.9904 6.79211 15.9564 6.71007 15.8958 6.64963C15.7853 6.53932 15.6116 6.52412 15.4837 6.61356L14.4874 7.30976C14.3988 7.37168 14.2771 7.30829 14.2771 7.2002C14.2771 7.11327 14.1955 7.04947 14.1111 7.07052L13.64 7.1881C13.3067 7.27128 12.9935 7.42057 12.719 7.62711L12.7045 7.63806C12.1436 8.0601 11.6961 8.61458 11.4019 9.2519L11.3409 9.38411C11.1095 9.88542 10.9073 10.4017 10.8116 10.9455C10.7159 11.4892 10.6326 12.2415 10.7078 12.9925C10.8506 14.4177 10.9745 15.1544 11.4217 16.4358H13.4205V18.4312ZM9.13739 22.1348C10.5567 22.1348 11.7073 20.9862 11.7073 19.5694C11.7073 18.1525 10.5567 17.0039 9.13739 17.0039C7.71808 17.0039 6.5675 18.1525 6.5675 19.5694C6.5675 20.9862 7.71808 22.1348 9.13739 22.1348ZM19.4169 22.1348C20.8362 22.1348 21.9868 20.9862 21.9868 19.5694C21.9868 18.1525 20.8362 17.0039 19.4169 17.0039C17.9976 17.0039 16.847 18.1525 16.847 19.5694C16.847 20.9862 17.9976 22.1348 19.4169 22.1348Z" fill="#008080"/>
</svg>
