<svg width="133" height="57" viewBox="0 0 133 57" fill="none" xmlns="http://www.w3.org/2000/svg">
<path fill-rule="evenodd" clip-rule="evenodd" d="M28.2772 42.5052C36.1622 42.5052 42.5543 36.1241 42.5543 28.2526C42.5543 20.3811 36.1622 14 28.2772 14C20.3921 14 14 20.3811 14 28.2526C14 36.1241 20.3921 42.5052 28.2772 42.5052ZM28.2772 41.0799C21.1806 41.0799 15.4277 35.3369 15.4277 28.2526C15.4277 21.1682 21.1806 15.4253 28.2772 15.4253C35.3737 15.4253 41.1266 21.1682 41.1266 28.2526C41.1266 35.3369 35.3737 41.0799 28.2772 41.0799ZM28.2772 40.2256C34.9006 40.2256 40.27 34.8655 40.27 28.2534C40.27 21.6414 34.9006 16.2812 28.2772 16.2812C21.6537 16.2812 16.2844 21.6414 16.2844 28.2534C16.2844 34.8655 21.6537 40.2256 28.2772 40.2256ZM28.2772 39.9861C21.7862 39.9861 16.5242 34.7332 16.5242 28.2534C16.5242 21.7736 21.7862 16.5207 28.2772 16.5207C34.7682 16.5207 40.0301 21.7736 40.0301 28.2534C40.0301 34.7332 34.7682 39.9861 28.2772 39.9861ZM25.9928 32.4312H27.4205V30.4358H25.4217C24.9745 29.1544 24.8506 28.4177 24.7078 26.9925C24.6326 26.2415 24.7159 25.4892 24.8116 24.9455C24.9073 24.4017 25.1095 23.8854 25.3409 23.3841L25.4019 23.2519C25.6961 22.6146 26.1436 22.0601 26.7045 21.6381L26.719 21.6271C26.9935 21.4206 27.3067 21.2713 27.64 21.1881L28.1111 21.0705C28.1955 21.0495 28.2771 21.1133 28.2771 21.2002C28.2771 21.3083 28.3988 21.3717 28.4874 21.3098L29.4837 20.6136C29.6116 20.5241 29.7853 20.5393 29.8958 20.6496C29.9564 20.7101 29.9904 20.7921 29.9904 20.8777V21.5205C29.9904 21.5723 29.9783 21.6233 29.9552 21.6695C29.891 21.7977 29.9161 21.9526 30.0176 22.0539L30.3088 22.3446C30.3792 22.4149 30.4187 22.5102 30.4187 22.6097C30.4187 22.6937 30.447 22.7753 30.4989 22.8413L31.8669 24.5793C31.9461 24.68 31.9892 24.8044 31.9892 24.9325V25.1317C31.9892 25.2446 31.9557 25.355 31.893 25.4489L31.8732 25.4785C31.7673 25.6372 31.5891 25.7324 31.3983 25.7324H31.1212C30.9479 25.7324 30.7839 25.6537 30.6756 25.5185L30.4474 25.2338C30.339 25.0985 30.1751 25.0198 30.0018 25.0198H29.6194C29.4899 25.0198 29.3642 24.9758 29.263 24.895L28.7248 24.4652C28.7121 24.455 28.7017 24.4421 28.6943 24.4275C28.6382 24.3154 28.4685 24.3646 28.481 24.4894L28.529 24.9687C28.5514 25.1921 28.5986 25.4124 28.6697 25.6254L28.7615 25.9002C28.8189 26.0723 28.9038 26.234 29.0127 26.379L29.1546 26.5678C29.2358 26.6759 29.3245 26.778 29.4202 26.8735L29.5756 27.0287C29.6617 27.1146 29.7537 27.1943 29.851 27.2671L30.2759 27.5853L30.8813 27.9882C31.046 28.0977 31.1792 28.2484 31.2677 28.4252C31.3666 28.6227 31.4181 28.8405 31.4181 29.0613V30.4358H29.1338V32.4312H30.5615L30.5112 32.5989C30.3574 33.1114 30.3508 33.6568 30.4921 34.173L30.5615 34.4265H25.9928L26.0622 34.173C26.2034 33.6568 26.1968 33.1114 26.0431 32.5989L25.9928 32.4312ZM25.7073 33.5694C25.7073 34.9862 24.5567 36.1348 23.1374 36.1348C21.7181 36.1348 20.5675 34.9862 20.5675 33.5694C20.5675 32.1525 21.7181 31.0039 23.1374 31.0039C24.5567 31.0039 25.7073 32.1525 25.7073 33.5694ZM35.9868 33.5694C35.9868 34.9862 34.8362 36.1348 33.4169 36.1348C31.9976 36.1348 30.847 34.9862 30.847 33.5694C30.847 32.1525 31.9976 31.0039 33.4169 31.0039C34.8362 31.0039 35.9868 32.1525 35.9868 33.5694ZM47.6323 23.64V34H51.9443C54.1843 34 55.4163 32.978 55.4163 31.144C55.4163 29.968 54.8703 29.17 53.8483 28.834C54.7863 28.428 55.2903 27.616 55.2903 26.51C55.2903 24.732 54.0303 23.64 51.9443 23.64H47.6323ZM49.9003 25.628H51.7063C52.5323 25.628 52.9663 26.006 52.9663 26.734C52.9663 27.476 52.5183 27.882 51.7063 27.882H49.9003V25.628ZM49.9003 29.786H51.8183C52.6443 29.786 53.0923 30.164 53.0923 30.864C53.0923 31.634 52.6583 32.012 51.8183 32.012H49.9003V29.786ZM59.2109 34V23.64H56.9429V34H59.2109ZM60.5746 23.64V25.74H63.5146V34H65.7826V25.74H68.7226V23.64H60.5746ZM73.3155 23.444C71.0895 23.444 69.5075 24.774 69.5075 26.65C69.5075 28.344 70.4595 29.394 72.3075 29.772L73.8895 30.094C74.5755 30.234 74.8415 30.528 74.8415 31.102C74.8415 31.76 74.1975 32.166 73.1755 32.166C72.1675 32.166 71.6075 31.746 71.6075 30.99H69.3535C69.3535 32.936 70.8515 34.182 73.1615 34.182C75.5415 34.182 77.1095 32.88 77.1095 30.878C77.1095 29.24 76.2275 28.358 74.3795 27.98L72.8255 27.658C72.0975 27.504 71.7755 27.196 71.7755 26.566C71.7755 25.88 72.3635 25.46 73.2875 25.46C74.1415 25.46 74.6875 25.908 74.6875 26.636H76.9415C76.9415 24.676 75.5415 23.444 73.3155 23.444ZM77.6608 34H80.0268L80.7688 31.816H84.1148L84.8428 34H87.2508L83.5688 23.64H81.3568L77.6608 34ZM81.4268 29.912L82.1688 27.7C82.2948 27.322 82.4068 26.93 82.4488 26.692C82.4908 26.944 82.6168 27.35 82.7288 27.7L83.4708 29.912H81.4268ZM87.322 28.834C87.322 32.11 89.268 34.168 92.376 34.168C94.966 34.168 96.898 32.642 97.262 30.332H94.91C94.63 31.354 93.692 31.984 92.418 31.984C90.752 31.984 89.716 30.766 89.716 28.82C89.716 26.846 90.738 25.656 92.418 25.656C93.664 25.656 94.546 26.244 94.854 27.28H97.248C96.926 24.956 95.064 23.472 92.474 23.472C89.38 23.472 87.322 25.6 87.322 28.834ZM98.2048 28.834C98.2048 32.11 100.151 34.168 103.259 34.168C105.849 34.168 107.781 32.642 108.145 30.332H105.793C105.513 31.354 104.575 31.984 103.301 31.984C101.635 31.984 100.599 30.766 100.599 28.82C100.599 26.846 101.621 25.656 103.301 25.656C104.547 25.656 105.429 26.244 105.737 27.28H108.131C107.809 24.956 105.947 23.472 103.357 23.472C100.263 23.472 98.2048 25.6 98.2048 28.834ZM114.142 34.168C117.152 34.168 119.238 31.97 119.238 28.806C119.238 25.642 117.166 23.458 114.156 23.458C111.16 23.458 109.088 25.656 109.088 28.82C109.088 31.984 111.146 34.168 114.142 34.168ZM114.17 25.642C115.836 25.642 116.844 26.832 116.844 28.806C116.844 30.766 115.836 31.984 114.17 31.984C112.49 31.984 111.482 30.794 111.482 28.806C111.482 26.832 112.49 25.642 114.17 25.642Z" fill="#008080"/>
</svg>
